<?xml version="1.0" standalone="no"?>
<!DOCTYPE svg PUBLIC "-//W3C//DTD SVG 20010904//EN"
 "http://www.w3.org/TR/2001/REC-SVG-20010904/DTD/svg10.dtd">
<svg version="1.0" xmlns="http://www.w3.org/2000/svg"
 width="512.000000pt" height="512.000000pt" viewBox="0 0 512.000000 512.000000"
 preserveAspectRatio="xMidYMid meet">
<metadata>
Created by potrace 1.11, written by Peter Selinger 2001-2013
</metadata>
<g transform="translate(0.000000,512.000000) scale(0.100000,-0.100000)"
fill="#000000" stroke="none">
<path d="M3380 5046 c-29 -8 -54 -8 -71 -2 -15 5 -34 6 -45 1 -10 -5 -23 -9
-29 -10 -5 0 -20 -6 -32 -13 -12 -7 -30 -12 -40 -12 -25 0 -79 -35 -118 -76
-18 -19 -37 -34 -42 -34 -5 0 -18 -15 -28 -34 -11 -19 -23 -32 -28 -29 -4 3
-11 -4 -14 -16 -3 -11 -9 -19 -13 -16 -5 3 -14 -11 -20 -30 -6 -19 -16 -33
-21 -30 -8 6 -14 -16 -10 -38 1 -5 -3 -6 -8 -3 -11 7 -33 -18 -24 -27 3 -4 1
-7 -6 -7 -7 0 -10 -4 -6 -9 3 -5 0 -13 -6 -16 -5 -4 -8 -12 -6 -19 3 -6 0 -18
-7 -27 -14 -18 -69 -54 -78 -51 -5 1 -8 -3 -8 -9 0 -5 -4 -8 -9 -4 -5 3 -15 0
-23 -7 -7 -7 -25 -19 -41 -27 -15 -8 -39 -27 -55 -42 -15 -16 -33 -29 -40 -29
-7 0 -11 -4 -8 -8 3 -5 -1 -9 -9 -9 -8 0 -19 14 -26 30 -7 16 -23 40 -36 53
-13 13 -23 25 -23 26 4 10 -21 56 -38 71 -11 10 -26 32 -32 48 -11 27 -21 34
-43 30 -5 -1 -6 2 -3 7 2 4 -9 23 -25 41 -16 19 -29 38 -29 43 0 13 -67 78
-80 78 -6 0 -10 4 -10 10 0 13 -32 50 -43 50 -5 0 -1 -8 9 -17 9 -9 12 -19 6
-21 -11 -3 8 -52 21 -52 5 0 5 -4 2 -10 -3 -5 -1 -10 5 -10 7 0 10 -6 7 -14
-3 -8 8 -28 24 -45 16 -17 27 -31 25 -31 -3 0 0 -13 5 -30 6 -16 14 -28 18
-25 6 3 7 -17 2 -44 -1 -3 -6 0 -12 6 -6 6 -18 9 -25 6 -8 -3 -14 0 -14 6 0 6
-7 11 -16 11 -8 0 -13 4 -10 9 4 5 -5 8 -19 6 -16 -1 -25 3 -25 11 0 12 -20
19 -36 12 -3 -2 -10 5 -15 15 -6 9 -18 17 -28 17 -9 0 -26 6 -36 14 -11 8 -24
12 -31 9 -6 -2 -14 3 -17 11 -4 9 -13 16 -20 16 -8 0 -28 7 -46 16 -17 9 -39
13 -47 10 -8 -3 -12 -2 -9 4 3 6 -3 10 -14 10 -12 0 -21 6 -21 13 0 8 -4 7
-10 -3 -6 -9 -10 -10 -10 -3 0 7 -14 10 -40 8 -24 -2 -38 1 -37 7 1 6 -14 13
-33 15 -19 3 -41 9 -47 15 -9 8 -13 7 -13 -3 0 -11 -2 -11 -8 -2 -7 11 -46 19
-139 27 -18 2 -39 8 -47 15 -10 8 -16 9 -21 1 -4 -7 -12 -7 -24 0 -10 5 -21 6
-25 3 -3 -3 -6 -2 -6 4 0 5 -21 10 -47 11 -140 5 -169 8 -182 20 -10 10 -16
10 -27 1 -8 -6 -14 -7 -14 -2 0 10 -17 14 -63 14 -15 0 -25 4 -22 9 3 6 -1 7
-10 4 -24 -10 23 -47 53 -41 12 2 25 0 28 -4 3 -5 14 -9 24 -9 10 0 25 -7 33
-15 8 -7 26 -17 41 -21 15 -3 23 -11 19 -17 -4 -6 0 -8 10 -4 11 4 17 1 17 -8
0 -8 8 -12 19 -10 11 2 24 -2 30 -9 6 -7 30 -19 53 -26 24 -8 47 -20 51 -28 5
-7 17 -10 28 -7 14 5 19 2 19 -12 0 -14 2 -15 9 -5 7 11 9 10 15 -3 3 -9 10
-13 16 -10 6 4 7 -1 3 -10 -4 -13 -14 -15 -41 -10 -24 4 -38 2 -43 -7 -6 -8
-9 -9 -9 -1 0 11 -25 9 -60 -4 -8 -3 -20 -7 -27 -9 -6 -1 -21 -9 -33 -17 l-21
-14 21 -6 c11 -3 18 -2 15 3 -3 4 8 7 23 7 15 0 38 3 52 8 21 7 23 6 13 -7 -7
-8 -9 -18 -5 -23 4 -4 -6 -5 -21 -3 -18 4 -30 1 -34 -8 -2 -7 -11 -10 -18 -8
-7 3 -16 1 -20 -5 -3 -6 -14 -11 -24 -11 -10 0 -28 -11 -40 -24 -12 -13 -30
-23 -39 -21 -9 1 -30 -5 -47 -13 -16 -9 -36 -15 -44 -13 -7 1 -10 -2 -7 -7 3
-6 -17 -22 -44 -36 -28 -14 -50 -24 -50 -21 0 3 -10 0 -22 -7 -13 -7 -26 -11
-30 -10 -5 1 -8 -3 -8 -9 0 -5 -4 -8 -9 -4 -5 3 -16 -2 -25 -10 -10 -10 -17
-12 -21 -4 -7 11 -42 -29 -38 -43 2 -4 -4 -5 -12 -2 -10 4 -15 0 -15 -12 0 -9
-3 -15 -6 -11 -4 3 -13 -1 -21 -9 -8 -8 -19 -12 -24 -9 -5 4 -9 1 -9 -5 0 -7
-7 -9 -17 -6 -10 4 -14 3 -9 -1 12 -12 65 -10 70 3 4 12 41 12 52 1 4 -4 13
-2 20 3 6 6 16 10 20 8 5 -1 19 3 31 10 12 7 24 8 27 3 3 -5 21 -8 39 -6 23 2
34 -1 34 -10 0 -8 -4 -12 -9 -9 -4 3 -8 0 -8 -5 0 -6 -3 -10 -8 -10 -19 3 -33
-2 -27 -11 3 -6 -5 -14 -19 -20 -14 -5 -26 -17 -26 -27 0 -15 -2 -16 -10 -3
-9 14 -14 7 -11 -13 1 -5 -3 -6 -8 -2 -6 3 -20 -8 -32 -24 -12 -17 -26 -28
-31 -25 -4 3 -8 -2 -8 -10 0 -9 -5 -16 -11 -16 -5 0 -7 -5 -4 -10 4 -6 2 -9
-3 -8 -5 2 -34 -21 -63 -51 -29 -30 -47 -51 -40 -46 10 5 12 4 7 -3 -4 -7 -13
-12 -20 -12 -18 0 -59 -47 -52 -59 4 -6 1 -9 -7 -5 -8 3 -18 0 -23 -7 -5 -8
-3 -10 6 -4 7 5 5 -4 -6 -18 -10 -15 -22 -27 -26 -27 -5 0 -8 -7 -8 -15 0 -9
-6 -12 -15 -9 -11 5 -13 2 -9 -10 4 -12 10 -14 18 -6 7 5 22 11 34 13 12 2 25
6 28 10 4 4 16 7 26 7 10 0 18 4 18 8 0 4 12 7 28 6 15 -1 32 2 37 6 6 5 25 7
43 5 17 -1 32 2 32 7 0 5 10 8 23 7 12 -2 27 -1 32 3 6 3 20 2 33 -3 21 -8 22
-10 8 -43 -8 -19 -11 -37 -8 -41 4 -3 -2 -3 -12 1 -14 5 -17 4 -12 -4 4 -7 3
-12 -2 -12 -5 0 -8 -11 -7 -25 2 -14 -1 -25 -6 -25 -6 0 -7 -4 -4 -10 3 -5 1
-10 -4 -10 -6 0 -11 -5 -11 -11 0 -5 6 -7 13 -4 6 4 3 -2 -8 -12 -11 -10 -20
-28 -19 -40 1 -13 -3 -20 -9 -16 -6 3 -8 -8 -5 -30 2 -20 0 -35 -5 -34 -6 1
-11 -29 -13 -66 -2 -42 0 -65 7 -62 5 4 7 11 4 16 -3 5 2 6 11 2 11 -4 15 -3
10 5 -3 6 3 17 15 26 14 10 19 21 15 32 -5 14 -4 15 9 4 12 -10 15 -10 15 3 0
9 9 19 20 22 11 4 18 10 15 15 -5 8 33 26 48 22 4 -1 7 5 7 14 0 8 5 12 10 9
6 -3 10 -1 10 4 0 6 7 11 16 11 9 0 12 5 8 12 -5 8 -2 9 10 5 10 -4 19 -1 22
7 3 7 16 12 29 10 14 -1 23 3 22 9 -1 7 4 11 11 9 6 -1 12 3 12 9 0 20 25 2
26 -19 1 -12 -3 -19 -7 -16 -5 3 -9 -4 -9 -16 0 -12 -3 -19 -8 -16 -4 2 -15
-8 -24 -24 -15 -27 -15 -28 0 -23 10 3 7 -2 -6 -12 -13 -9 -21 -23 -18 -31 3
-9 0 -11 -12 -7 -15 6 -16 5 -2 -12 13 -17 13 -18 -1 -13 -11 4 -20 -2 -28
-18 -10 -24 -10 -25 11 -18 13 3 27 13 31 21 5 7 13 10 19 7 7 -5 9 -2 6 7 -4
10 1 15 13 15 13 0 19 -7 19 -23 0 -13 5 -23 11 -23 5 0 7 -4 4 -10 -3 -5 -1
-10 5 -10 7 0 9 -7 6 -16 -3 -8 1 -22 9 -31 8 -8 12 -19 9 -25 -4 -7 -2 -8 4
-4 7 4 12 2 12 -3 0 -6 0 -13 0 -16 0 -3 8 -14 17 -24 10 -11 23 -26 28 -33
37 -48 64 -76 69 -71 3 4 6 1 6 -5 0 -7 6 -12 14 -12 7 0 13 -10 12 -22 -1
-18 -7 -22 -31 -23 -16 0 -33 4 -36 9 -4 5 -22 10 -40 12 -19 1 -56 5 -82 8
-33 4 -46 2 -41 -5 9 -16 -87 1 -104 17 -7 8 -22 14 -33 14 -10 0 -19 4 -19
10 0 5 -7 7 -15 4 -8 -4 -17 1 -21 10 -3 9 -10 13 -15 10 -6 -3 -16 0 -24 6
-8 7 -25 10 -37 7 -12 -4 -28 -1 -35 5 -7 6 -13 8 -13 4 0 -3 -9 3 -21 15 -11
11 -27 18 -35 15 -9 -3 -12 -1 -9 4 3 6 -1 13 -9 16 -9 3 -13 11 -9 17 3 5 1
7 -5 3 -6 -3 -17 1 -25 9 -9 8 -22 15 -29 15 -7 0 -22 6 -33 14 -19 12 -67 28
-81 25 -4 0 -10 5 -15 12 -7 12 -25 19 -56 21 -7 1 -13 6 -13 11 0 5 -7 7 -15
4 -8 -4 -17 -2 -20 3 -3 4 -13 7 -23 5 -9 -2 -23 -4 -30 -4 -18 -1 -73 -57
-64 -66 4 -4 -4 -1 -18 6 -29 16 -41 30 -34 41 3 4 -3 8 -13 8 -10 0 -24 9
-31 21 -8 13 -19 18 -29 15 -14 -6 -14 -4 -2 11 8 9 9 14 2 10 -7 -4 -16 0
-21 9 -6 11 -11 13 -16 5 -4 -6 -4 -11 1 -11 4 0 2 -4 -6 -9 -12 -7 -12 -14 0
-39 7 -17 16 -26 20 -21 3 6 9 1 12 -10 3 -12 1 -19 -4 -15 -15 9 -10 -3 8
-22 17 -17 27 -57 11 -48 -4 3 -8 -2 -8 -11 0 -9 -4 -14 -9 -11 -5 3 -9 -10
-8 -29 1 -19 5 -35 9 -35 4 0 8 -7 8 -16 0 -9 5 -12 12 -8 8 5 9 2 5 -9 -3
-10 -2 -17 4 -17 6 0 8 -4 4 -9 -3 -5 -1 -12 5 -16 5 -3 10 -19 10 -34 0 -27
38 -65 65 -66 6 0 10 -4 10 -10 0 -18 16 -36 26 -29 5 3 8 2 7 -3 -2 -4 1 -9
5 -10 5 -1 19 -13 33 -28 13 -14 24 -22 25 -18 0 4 4 -2 10 -15 5 -13 13 -21
17 -18 5 3 35 -19 66 -49 38 -36 64 -52 77 -50 11 2 17 0 15 -4 -3 -5 4 -17
15 -27 11 -10 20 -14 19 -9 -5 21 0 36 10 30 6 -3 10 -1 10 5 0 6 5 8 10 5 6
-4 18 -1 27 7 11 8 14 8 10 1 -8 -13 20 -43 61 -64 35 -18 53 -35 45 -43 -4
-3 4 -6 16 -6 12 0 33 -11 46 -25 14 -13 25 -22 25 -20 0 2 17 -14 38 -36 22
-21 43 -39 48 -39 12 0 44 -37 44 -50 0 -6 5 -10 11 -10 5 0 8 -4 5 -8 -3 -5
7 -20 22 -34 22 -21 28 -34 27 -69 0 -24 -4 -49 -8 -56 -4 -6 -8 -23 -9 -37
-1 -14 -5 -26 -8 -26 -5 0 -5 -31 -1 -61 1 -3 18 -23 38 -44 21 -21 32 -35 26
-31 -9 5 -8 -1 2 -21 8 -15 20 -42 27 -60 11 -28 38 -47 61 -44 4 1 10 -6 13
-14 5 -12 9 -13 20 -4 9 7 14 8 14 1 0 -5 11 -13 24 -16 18 -4 23 -11 19 -26
-3 -10 -13 -22 -24 -25 -10 -3 -16 -12 -13 -19 3 -7 -2 -13 -11 -13 -8 0 -15
4 -15 9 0 11 -62 0 -75 -14 -7 -8 -5 -9 5 -4 8 4 6 1 -4 -8 -10 -8 -23 -13
-28 -10 -5 3 -8 0 -7 -7 1 -8 -1 -21 -4 -29 -3 -8 -11 -35 -17 -60 -14 -59
-41 -120 -52 -120 -5 0 -7 -4 -3 -10 5 -9 -13 -49 -27 -60 -4 -3 -6 -16 -3
-28 2 -12 -1 -22 -7 -22 -5 0 -8 -6 -5 -14 3 -7 0 -24 -7 -38 -7 -13 -11 -34
-9 -46 1 -12 -2 -22 -7 -22 -7 0 -7 -6 0 -19 6 -12 6 -22 1 -25 -27 -17 77
-171 109 -164 7 2 16 -7 21 -19 5 -14 5 -23 -1 -23 -6 0 -6 -9 0 -24 5 -13 6
-27 3 -30 -4 -3 -1 -6 6 -6 8 0 9 -5 2 -19 -8 -14 -7 -22 3 -31 8 -6 14 -23
14 -38 -1 -43 1 -54 11 -48 5 3 7 -10 4 -29 -3 -23 -1 -35 7 -35 7 0 10 -7 7
-15 -4 -8 -2 -17 4 -21 6 -3 10 -18 9 -32 -3 -44 -1 -52 15 -52 13 0 14 -4 5
-20 -9 -16 -8 -20 5 -20 12 0 15 -6 10 -20 -3 -11 -3 -20 2 -20 10 0 33 -49
33 -71 0 -10 5 -21 10 -24 6 -4 8 -10 5 -15 -7 -12 5 -41 15 -35 5 3 6 -4 3
-15 -3 -11 0 -20 6 -20 7 0 9 -9 5 -24 -4 -16 -1 -25 11 -30 10 -3 15 -12 12
-20 -3 -8 -1 -16 5 -18 6 -2 12 -13 13 -24 6 -57 19 -79 46 -76 3 1 4 -9 2
-22 -3 -13 0 -27 6 -30 5 -4 8 -13 4 -21 -3 -8 0 -15 6 -15 6 0 11 -8 11 -17
1 -22 25 -55 33 -46 4 3 7 -3 7 -15 0 -12 5 -22 11 -22 5 0 7 -5 3 -12 -5 -7
-2 -9 9 -5 12 4 14 2 10 -11 -6 -15 -5 -15 10 -3 15 12 17 12 11 -4 -6 -15 -3
-17 14 -13 12 4 20 2 17 -2 -3 -5 -1 -10 5 -12 5 -1 11 -14 13 -27 5 -31 44
-72 63 -64 7 3 14 0 14 -6 0 -6 7 -8 15 -5 8 4 21 2 28 -4 20 -16 106 8 114
33 10 28 10 38 2 55 -3 8 -3 24 1 35 4 11 3 26 -2 32 -7 9 -7 13 1 13 7 0 9
12 6 33 -11 61 -14 176 -5 182 5 3 6 27 3 53 -4 26 -7 68 -7 95 -1 26 -5 47
-9 47 -5 0 -5 6 0 12 10 18 10 45 -2 103 -6 28 -10 78 -10 113 1 34 -2 62 -6
62 -5 0 -7 25 -6 55 2 31 -1 57 -7 59 -6 2 -5 5 2 5 9 1 10 6 3 19 -6 11 -10
27 -10 38 1 29 -6 69 -15 82 -5 8 -2 10 9 6 11 -4 14 -2 9 9 -8 22 14 31 41
17 15 -8 21 -18 18 -28 -5 -10 -2 -13 6 -8 8 6 11 2 9 -10 -2 -11 2 -18 8 -17
8 1 10 -6 6 -19 -3 -14 -1 -19 6 -14 7 4 14 -3 18 -18 3 -13 12 -27 20 -30 8
-3 14 -12 14 -21 0 -8 5 -15 12 -15 6 0 9 -3 5 -6 -3 -3 5 -16 18 -28 53 -48
61 -55 73 -70 7 -9 9 -16 5 -17 -4 0 2 -4 13 -9 18 -7 21 -15 18 -49 -3 -42
11 -65 22 -36 6 14 9 13 23 -7 22 -32 69 -35 104 -8 38 30 53 67 51 122 -1 27
3 48 8 48 6 0 8 9 5 20 -3 13 0 20 9 20 11 0 12 4 4 19 -7 14 -7 22 1 26 5 4
9 19 8 33 -2 15 -1 32 2 37 8 16 4 287 -5 314 -5 15 -5 21 2 17 6 -3 8 2 5 13
-3 10 0 22 6 25 6 4 11 15 11 24 0 10 9 23 20 30 11 7 20 19 20 27 0 8 5 15
11 15 6 0 9 7 5 15 -3 8 0 14 6 12 7 -1 12 3 13 8 0 6 4 16 8 23 5 6 6 16 3
20 -9 15 11 33 42 37 18 2 31 1 31 -3 -3 -18 2 -26 10 -14 4 7 23 16 42 19 19
3 39 6 44 7 6 1 15 5 21 9 16 10 26 -4 13 -20 -6 -7 -10 -13 -8 -14 38 -6 77
-4 72 4 -3 5 4 4 16 -2 19 -10 24 -8 23 9 0 3 11 6 24 6 13 1 22 -1 19 -5 -2
-4 2 -8 10 -8 7 0 19 11 26 24 14 27 34 29 56 8 8 -8 19 -13 24 -10 5 4 9 -2
10 -12 0 -11 3 -13 6 -5 2 6 9 10 13 7 5 -3 26 -6 47 -7 21 -1 32 -3 26 -5 -7
-3 -9 -11 -6 -19 3 -7 -2 -17 -11 -20 -9 -3 -16 -12 -16 -19 0 -7 -7 -15 -15
-19 -8 -3 -15 -15 -15 -26 0 -13 -4 -18 -11 -15 -6 4 -9 1 -7 -7 1 -7 -8 -28
-20 -46 -13 -17 -20 -32 -15 -32 4 0 0 -5 -9 -11 -11 -6 -15 -16 -11 -26 4
-10 2 -14 -4 -10 -11 7 -27 -28 -23 -52 1 -8 -3 -10 -11 -5 -9 5 -11 1 -7 -14
4 -12 2 -20 -3 -16 -5 3 -9 -2 -9 -10 0 -9 -3 -16 -8 -16 -4 0 -16 -20 -27
-45 -11 -25 -23 -45 -27 -45 -4 0 -5 -10 -3 -22 2 -13 9 -60 15 -106 7 -45 16
-82 21 -82 5 0 9 -8 9 -18 0 -10 3 -22 8 -26 4 -4 7 -11 8 -14 1 -14 29 -67
41 -80 7 -7 10 -19 7 -27 -4 -10 0 -15 11 -15 12 0 16 -6 12 -20 -3 -11 -1
-18 4 -14 5 3 9 -2 9 -10 0 -9 4 -16 10 -16 5 0 12 -11 16 -25 6 -23 14 -29
30 -22 3 1 12 -13 21 -30 8 -18 22 -33 29 -33 8 0 14 -4 14 -10 0 -14 47 -12
57 3 12 20 15 44 25 222 2 39 7 76 12 83 4 6 4 17 1 22 -3 6 -2 10 2 10 5 0
10 8 11 17 3 32 7 48 15 61 5 6 6 16 3 20 -7 12 29 42 52 42 4 0 0 5 -8 10
-13 8 -12 10 3 10 10 0 20 7 23 15 4 10 13 13 25 10 11 -4 19 -2 19 3 0 5 8 9
18 9 34 0 43 3 37 13 -3 5 8 7 26 5 39 -5 48 -17 42 -58 -2 -18 -6 -51 -7 -73
-2 -23 -7 -47 -12 -55 -10 -17 -11 -47 -2 -76 6 -17 4 -23 -8 -23 -12 0 -15
-7 -12 -30 3 -16 1 -30 -4 -30 -5 0 -6 -11 -4 -25 3 -14 -1 -28 -7 -32 -7 -5
-12 -21 -12 -38 0 -19 -5 -29 -13 -27 -7 1 -15 -6 -19 -15 -4 -10 -12 -22 -20
-26 -7 -4 -13 -17 -13 -27 0 -11 -5 -20 -11 -20 -5 0 -7 5 -3 12 5 7 3 8 -5 4
-7 -5 -10 -10 -7 -13 3 -3 1 -14 -5 -24 -7 -15 -6 -21 6 -25 8 -3 12 -10 9
-16 -3 -5 -13 -4 -22 4 -11 8 -10 4 3 -11 18 -22 18 -24 2 -18 -17 6 -16 4 2
-22 l21 -29 -22 5 c-13 3 -19 1 -13 -4 16 -13 17 -35 3 -62 -10 -19 -10 -25 0
-28 6 -3 12 -13 12 -23 0 -10 5 -20 12 -22 7 -3 5 -7 -6 -11 -10 -4 -15 -3
-11 3 3 6 1 10 -4 10 -14 0 -14 -17 -1 -25 6 -3 10 -16 10 -29 0 -31 31 -58
50 -45 12 9 12 10 -2 5 -10 -3 -18 -1 -18 4 0 6 5 10 11 10 7 0 18 8 26 18 13
15 13 15 3 -6 -12 -25 -8 -27 21 -11 11 5 16 15 13 21 -5 7 -2 8 6 3 10 -6 12
-4 7 8 -3 9 1 21 11 28 14 11 15 11 5 0 -12 -14 -7 -41 9 -41 5 0 7 4 4 9 -4
5 -1 11 4 13 6 2 12 13 13 26 0 12 5 22 9 22 4 0 8 4 8 10 0 5 -8 7 -17 4 -11
-4 -14 -3 -7 3 6 4 10 16 9 25 -2 11 2 15 12 11 12 -5 12 -7 1 -15 -10 -8 -10
-9 2 -5 8 2 14 10 13 16 -2 6 5 11 15 11 13 0 14 2 4 9 -11 7 -9 13 9 29 12
12 27 19 32 15 6 -3 7 -1 3 6 -4 6 -11 9 -16 6 -4 -3 -11 2 -14 11 -5 14 -9
14 -24 3 -15 -13 -16 -12 -3 3 10 14 18 15 32 7 14 -7 20 -6 23 3 1 7 9 29 16
48 7 19 13 45 14 56 1 14 6 20 15 16 9 -3 12 -1 7 6 -4 7 -2 12 5 12 6 0 9 8
6 19 -3 12 1 22 10 25 8 3 11 10 8 16 -3 5 -1 10 5 10 6 0 9 4 5 9 -3 5 -1 12
5 16 6 4 8 11 5 16 -4 5 -1 9 5 9 6 0 9 4 6 8 -3 5 4 19 15 30 11 12 15 22 10
22 -6 0 -2 13 7 30 9 16 20 30 24 30 3 0 4 9 1 20 -3 11 0 20 6 20 6 0 10 3 9
8 -3 16 15 62 22 57 5 -3 9 3 9 12 -1 31 7 54 20 62 7 5 12 12 11 17 -3 21 24
96 37 101 9 4 11 8 4 12 -15 9 3 33 20 26 9 -3 14 -20 13 -50 -1 -25 -3 -47
-4 -50 -1 -3 -4 -9 -5 -15 -1 -5 -3 -11 -5 -12 -1 -2 -3 -52 -5 -113 -8 -227
-13 -297 -23 -307 -7 -7 -7 -19 -1 -35 5 -13 6 -22 1 -20 -4 3 -7 -15 -6 -39
0 -25 -2 -47 -6 -49 -4 -2 -6 -33 -5 -70 1 -39 -3 -65 -9 -65 -6 0 -4 -5 4
-10 13 -9 13 -11 -1 -20 -10 -6 -15 -22 -14 -45 0 -19 -3 -35 -8 -35 -5 0 -4
-7 3 -15 7 -8 9 -15 5 -15 -4 0 -2 -6 4 -14 8 -10 9 -16 1 -21 -6 -3 -8 -11
-5 -16 4 -5 2 -9 -4 -9 -5 0 -13 5 -16 10 -3 6 -1 10 6 10 7 0 10 3 6 6 -12
12 -28 -7 -18 -20 6 -7 7 -17 3 -21 -4 -5 -1 -5 7 0 9 5 12 4 7 -3 -3 -6 -2
-13 4 -17 6 -4 4 -14 -5 -29 -8 -12 -12 -26 -8 -31 5 -4 2 -5 -5 -1 -7 4 -9
12 -6 18 4 7 2 8 -4 4 -12 -7 -5 -36 9 -36 5 0 3 -12 -3 -26 -8 -16 -8 -28 -2
-32 12 -9 16 -52 5 -52 -5 0 3 -13 18 -29 25 -28 27 -28 56 -13 29 14 29 14
15 -3 -14 -17 -13 -17 6 -7 16 8 24 8 33 -1 10 -9 11 -9 6 3 -3 10 7 27 27 45
18 17 27 23 20 13 -10 -12 -10 -18 -1 -24 7 -4 9 -3 5 4 -3 6 -2 13 3 16 5 3
7 16 4 29 -4 18 -3 19 6 7 9 -12 11 -11 11 8 0 12 0 25 -1 28 0 4 5 10 11 14
7 4 9 13 6 19 -4 6 -12 8 -18 5 -7 -5 -8 -2 -3 5 5 9 10 10 18 2 16 -16 27
-13 20 6 -4 9 -2 14 3 10 6 -3 16 -2 23 2 10 6 9 10 -4 14 -10 5 -14 3 -9 -5
4 -7 3 -8 -4 -4 -15 9 6 56 22 50 7 -3 12 6 13 18 2 18 0 19 -7 8 -7 -11 -9
-10 -7 8 2 25 1 25 30 11 20 -9 20 -9 5 4 -10 8 -18 21 -18 29 0 8 -6 20 -12
28 -10 11 -9 11 6 0 17 -14 18 -13 12 8 -5 13 -3 22 3 22 6 0 11 5 11 11 0 5
-4 8 -9 4 -5 -3 -13 0 -17 6 -4 8 -3 9 4 5 7 -4 12 -1 13 6 0 7 3 22 5 33 3
11 6 31 9 45 2 14 5 34 7 45 2 11 8 23 15 28 6 4 10 18 7 32 -2 14 -1 25 4 25
4 0 9 12 10 26 1 14 5 31 9 37 4 7 8 21 8 32 1 11 4 36 8 55 9 43 17 93 21
140 2 19 4 35 6 35 1 0 4 9 5 20 2 11 9 47 16 80 6 33 13 74 13 90 1 17 7 40
14 52 8 14 9 24 2 28 -13 8 -4 24 13 21 26 -3 77 -29 77 -38 0 -5 5 -6 11 -3
6 4 17 -2 25 -14 8 -12 21 -21 27 -21 7 0 22 -16 35 -35 12 -19 27 -35 32 -35
6 0 10 -7 10 -15 0 -9 6 -18 14 -21 8 -3 12 -12 9 -20 -3 -8 -1 -14 5 -14 10
0 23 -32 25 -65 1 -11 8 -19 15 -17 10 2 11 -2 4 -15 -6 -9 -6 -24 -2 -32 22
-41 26 -60 29 -139 1 -13 4 -21 9 -19 4 3 7 -27 8 -66 1 -82 7 -167 12 -167 9
0 68 46 80 62 7 10 18 16 23 12 5 -3 8 -1 7 4 -2 5 14 26 35 46 20 20 37 41
37 46 0 6 7 10 15 10 8 0 15 4 15 8 0 4 18 28 40 52 23 25 53 62 67 82 14 21
30 38 35 38 6 0 7 8 4 17 -4 10 -4 14 0 11 7 -8 54 45 54 61 0 6 5 11 12 11 6
0 8 3 5 6 -4 4 3 15 14 25 11 9 21 21 21 26 0 4 5 19 11 33 6 14 10 28 9 33
-1 4 3 7 9 7 6 0 9 6 6 14 -3 7 -1 18 5 24 9 9 18 44 21 90 1 12 4 22 8 22 3
0 6 10 6 23 1 12 4 38 6 57 2 19 0 40 -5 47 -5 7 -5 14 1 17 6 4 7 14 4 23 -5
11 -3 14 6 8 10 -6 11 -3 2 14 -7 12 -10 25 -7 30 7 11 -15 81 -26 81 -4 0 -8
7 -8 15 0 8 -5 15 -11 15 -5 0 -7 5 -4 11 4 5 -2 18 -14 28 -11 10 -17 21 -14
25 4 4 3 10 -3 14 -6 4 -16 16 -22 27 -6 11 -12 14 -12 7 0 -7 -5 -10 -10 -7
-6 4 -8 11 -5 16 4 5 1 9 -4 9 -10 0 -36 19 -66 47 -16 15 -29 17 -20 3 3 -5
4 -10 0 -10 -3 0 -10 11 -15 24 -7 19 -14 23 -31 19 -15 -4 -20 -3 -15 5 5 8
0 12 -13 12 -12 0 -21 5 -21 10 0 6 -3 9 -7 9 -5 -1 -11 0 -15 1 -5 1 -12 3
-16 4 -5 0 -16 9 -26 19 -10 9 -25 17 -34 17 -10 0 -29 11 -44 24 -14 14 -29
22 -32 19 -3 -4 -6 -1 -6 5 0 7 -7 12 -16 12 -8 0 -12 5 -9 10 3 6 0 10 -8 10
-7 0 -23 9 -35 20 -12 12 -22 17 -22 13 0 -4 -6 -1 -13 7 -7 8 -25 20 -42 26
-19 6 -29 16 -29 27 1 9 -2 14 -8 11 -11 -7 -40 15 -33 27 3 4 -3 6 -15 4 -11
-2 -23 1 -26 7 -4 7 -2 8 4 4 20 -12 13 4 -13 30 -32 32 -41 69 -22 88 8 8 17
12 21 9 3 -4 6 -1 6 5 0 7 5 12 11 12 16 0 90 60 84 69 -2 5 7 6 21 3 14 -2
22 -7 20 -10 -3 -3 -1 -11 5 -19 9 -10 8 -13 -1 -13 -9 0 -10 -3 -1 -13 6 -8
9 -17 6 -20 -3 -4 -2 -5 2 -2 3 3 11 -2 17 -11 6 -8 21 -16 34 -17 12 0 22 -5
22 -9 0 -4 13 -8 29 -8 16 0 32 -6 34 -12 3 -8 6 -9 6 -2 1 7 14 10 31 8 17
-2 30 1 30 7 0 6 5 7 10 4 6 -3 10 1 10 9 0 8 9 17 19 21 11 3 23 14 26 25 7
21 28 32 70 35 17 1 33 3 36 4 13 2 19 52 9 71 -7 13 -7 20 -1 20 6 0 8 7 5
15 -4 8 -11 15 -16 15 -15 0 -49 41 -42 51 3 5 -1 9 -8 9 -9 0 -9 3 2 10 10 6
11 10 3 10 -9 0 -10 7 -4 23 13 35 3 47 -62 78 -44 20 -65 26 -78 19 -25 -14
-32 -12 -26 5 4 8 2 17 -4 20 -5 4 -3 13 6 21 14 14 12 19 -12 45 -16 16 -33
29 -40 29 -12 0 -20 30 -27 103 -2 29 1 40 13 45 9 3 18 8 21 11 12 14 70 51
80 51 5 0 10 5 10 11 0 5 4 8 9 4 6 -3 15 5 22 17 7 13 18 27 26 31 8 5 11 16
8 28 -5 14 -3 17 9 13 12 -5 15 -2 10 10 -3 9 -2 16 4 16 6 0 9 8 7 18 -1 9 3
24 10 32 17 19 23 64 10 69 -5 2 -14 -5 -20 -15 -5 -11 -14 -22 -20 -26 -5 -4
-6 -10 -2 -14 3 -4 -3 -15 -15 -25 -11 -11 -18 -19 -13 -19 4 0 -4 -9 -18 -20
-28 -22 -137 -29 -137 -9 0 6 -6 9 -14 6 -7 -3 -26 3 -41 13 -16 11 -33 16
-38 13 -6 -3 -7 -1 -3 5 4 7 4 12 -1 12 -13 0 -63 47 -63 59 0 7 -3 10 -7 8
-7 -5 -11 12 -16 66 -1 9 -4 17 -7 17 -3 0 -7 9 -8 20 -1 11 -2 26 -3 33 0 6
2 32 6 57 3 25 7 57 7 73 0 15 4 27 8 27 4 0 7 10 6 23 -1 12 2 24 6 27 3 3 8
17 10 30 2 14 7 31 11 38 5 6 5 17 2 22 -3 6 1 10 10 10 9 0 13 5 10 10 -3 6
-1 10 5 10 6 0 8 4 5 10 -3 5 6 21 20 34 15 14 25 28 23 32 -2 4 5 8 15 10 9
1 17 -2 17 -7 0 -18 4 -24 31 -53 15 -16 25 -35 22 -43 -3 -7 0 -13 5 -13 6 0
9 -13 7 -30 -2 -17 1 -30 7 -30 7 0 7 -4 0 -12 -5 -7 -9 -28 -7 -45 1 -18 -1
-33 -5 -33 -3 0 -6 -10 -5 -22 1 -13 0 -27 -4 -33 -11 -19 -9 -35 2 -28 14 8
34 34 36 46 1 12 26 35 33 31 4 -2 9 5 13 16 3 11 11 20 16 20 5 0 9 7 9 15 0
8 4 15 8 15 8 0 10 7 14 50 1 11 6 20 10 20 4 0 8 7 8 16 0 38 65 57 76 22 3
-10 12 -18 20 -18 8 0 14 -5 14 -11 0 -6 7 -9 15 -5 8 3 14 2 14 -2 -4 -22 3
-31 17 -25 10 4 22 -1 30 -11 17 -24 36 -10 31 22 -7 40 -18 72 -26 72 -4 0
-7 10 -9 23 -1 13 -9 41 -19 63 -9 21 -17 42 -17 46 -1 3 -4 9 -8 13 -4 4 -4
13 -1 21 3 9 -1 14 -12 14 -9 0 -13 5 -10 10 7 12 -40 72 -49 63 -3 -4 -6 1
-6 11 0 9 -4 14 -10 11 -5 -3 -10 1 -10 9 0 9 -6 16 -13 16 -7 0 -19 9 -27 19
-7 11 -17 18 -20 16 -4 -3 -29 16 -55 41 -26 24 -50 42 -53 40 -2 -3 -13 6
-24 19 -11 14 -23 25 -28 25 -4 0 -22 14 -40 30 -18 17 -29 30 -25 30 4 0 2 7
-5 15 -7 8 -10 15 -7 15 3 0 2 13 -3 29 -6 21 -5 31 3 35 9 3 9 5 0 5 -6 1 -9
10 -6 21 3 11 0 26 -6 33 -6 8 -9 23 -6 36 2 14 0 19 -7 15 -7 -5 -9 -1 -5 9
4 11 -1 20 -13 27 -11 6 -20 16 -20 23 0 17 -52 67 -69 67 -7 0 -10 4 -7 8 6
10 -30 43 -38 35 -3 -4 -6 1 -6 10 0 9 -5 17 -11 17 -5 0 -7 5 -4 10 3 6 0 10
-7 10 -7 0 -29 18 -48 39 -18 22 -38 37 -44 34 -6 -3 -8 -3 -4 2 11 11 -12 36
-25 28 -6 -3 -7 -1 -3 5 4 7 2 12 -3 12 -6 0 -11 6 -11 14 0 10 -7 13 -21 11
-16 -3 -18 -1 -10 9 8 10 4 19 -17 39 -32 31 -53 55 -52 62 0 6 -21 31 -67 80
-17 18 -28 37 -25 41 4 4 2 4 -5 0 -6 -3 -15 -1 -18 5 -4 5 -14 8 -23 4 -9 -3
-13 -3 -10 1 10 9 -40 47 -52 39 -5 -3 -10 -2 -10 4 0 6 -7 8 -15 5 -8 -4 -23
-3 -32 1 -10 4 -29 8 -43 9 -14 1 -31 6 -38 10 -7 4 -12 3 -12 -2 0 -5 -11 -7
-25 -4 -14 2 -23 7 -21 11 7 10 -66 8 -114 -3z m-839 -1848 c5 -8 7 -25 4 -37
-2 -14 1 -21 11 -21 8 0 13 -4 9 -9 -3 -6 4 -15 15 -21 11 -6 20 -7 20 -3 0 4
5 0 11 -9 5 -10 19 -18 29 -18 15 0 19 -6 18 -25 -1 -14 -7 -25 -12 -25 -15 0
-56 -42 -56 -57 0 -8 -7 -16 -16 -20 -8 -3 -13 -11 -10 -18 3 -8 -1 -16 -9
-19 -11 -4 -47 -65 -51 -86 0 -3 -3 -12 -7 -20 -10 -27 -14 -70 -7 -70 4 0 4
-16 0 -35 -6 -25 -4 -38 6 -46 8 -6 11 -15 8 -20 -3 -5 3 -9 13 -9 15 0 16 -2
3 -10 -14 -9 -7 -14 13 -11 5 1 6 -2 3 -7 -7 -11 39 -52 59 -52 8 0 15 -4 15
-10 0 -5 10 -10 23 -10 13 0 27 -3 31 -7 11 -11 36 -12 36 -2 0 6 6 7 13 2 17
-11 29 -11 50 -1 13 7 17 4 18 -14 2 -40 -3 -83 -10 -88 -9 -8 -7 -34 4 -42 6
-5 6 -8 -2 -8 -6 0 -9 -8 -7 -17 2 -10 5 -35 8 -57 2 -21 10 -43 18 -47 7 -5
9 -9 3 -9 -5 0 5 -13 23 -29 37 -33 39 -42 12 -66 -11 -10 -20 -13 -20 -8 0
13 -46 10 -80 -5 -14 -6 -22 -11 -18 -11 4 -1 -5 -13 -19 -27 -17 -17 -22 -28
-15 -33 8 -5 5 -12 -8 -21 -25 -18 -27 -65 -3 -74 12 -5 14 -9 6 -14 -8 -5 -9
-19 -4 -44 7 -28 5 -38 -5 -42 -8 -3 -11 -11 -9 -18 4 -9 -6 -14 -29 -15 -34
-2 -40 7 -22 36 6 9 5 12 -1 8 -6 -4 -11 11 -12 41 -2 85 -3 92 -12 92 -5 0
-9 13 -9 28 0 15 -6 34 -12 41 -11 11 -10 12 2 6 13 -8 13 -6 2 7 -7 9 -12 20
-11 24 4 18 -14 70 -29 82 -13 10 -13 12 -1 12 10 1 10 3 -3 11 -9 5 -15 15
-12 22 3 8 -6 18 -20 25 -15 6 -27 23 -31 41 -4 17 -11 29 -16 25 -5 -3 -12 3
-16 12 -4 10 -2 19 5 22 9 3 9 9 2 23 -6 10 -8 19 -6 19 3 0 -3 16 -14 36 -11
19 -18 39 -15 44 3 5 1 11 -5 15 -5 3 -10 15 -10 26 0 10 -5 19 -11 19 -5 0
-7 5 -4 10 3 6 1 10 -4 10 -6 0 -11 12 -11 26 0 14 -4 23 -9 20 -5 -4 -12 12
-16 34 -4 22 -10 40 -14 40 -5 0 -6 12 -3 26 3 17 1 25 -5 21 -6 -4 -10 1 -10
11 0 9 -1 24 -2 32 -1 20 -46 71 -55 63 -3 -3 -6 -1 -6 6 0 7 -4 10 -9 7 -5
-3 -12 1 -15 10 -3 8 -10 12 -16 9 -6 -3 -13 0 -16 9 -3 8 -14 13 -24 11 -10
-2 -25 4 -32 13 -11 15 -11 16 2 7 9 -5 8 -3 -2 7 -18 16 -15 48 4 48 6 0 21
11 34 25 26 28 54 33 54 9 0 -10 5 -12 13 -7 6 4 19 8 27 10 8 1 16 7 18 13 2
5 8 8 13 4 5 -3 9 2 9 11 0 9 4 14 8 11 5 -3 20 6 34 19 14 13 29 21 34 17 4
-4 4 1 1 10 -4 11 -2 15 7 12 7 -3 20 2 29 10 8 8 16 13 19 11 2 -2 12 9 22
24 10 15 28 32 40 37 12 5 20 15 19 21 -3 16 28 9 38 -9z m729 -2555 c0 -7 -4
-13 -10 -13 -5 0 -9 3 -9 8 3 19 -2 33 -10 27 -5 -3 -12 -1 -16 5 -4 6 -10 8
-15 5 -5 -3 -12 -1 -15 5 -4 6 -1 9 6 8 6 -2 14 3 17 11 3 9 0 11 -8 6 -9 -6
-11 -4 -5 5 6 10 15 4 36 -21 16 -19 29 -40 29 -46z m-149 24 c-10 -9 -11 -8
-5 6 3 10 9 15 12 12 3 -3 0 -11 -7 -18z m166 -134 c-4 -3 -1 -13 6 -22 11
-14 10 -14 -5 -2 -16 12 -16 31 -1 31 4 0 3 -3 0 -7z m-141 -135 c-3 -19 -25
-55 -26 -42 0 6 3 14 8 18 4 4 8 12 8 17 2 15 4 19 8 19 2 0 3 -6 2 -12z m505
-358 c24 11 24 11 -1 -9 -24 -19 -40 -14 -40 14 0 6 4 4 9 -4 7 -10 13 -11 32
-1z"/>
<path d="M2186 2963 c-6 -14 -5 -15 5 -6 7 7 10 15 7 18 -3 3 -9 -2 -12 -12z"/>
<path d="M4645 3110 c-3 -5 -1 -10 4 -10 6 0 11 5 11 10 0 6 -2 10 -4 10 -3 0
-8 -4 -11 -10z"/>
<path d="M3080 531 c0 -6 4 -13 10 -16 6 -3 7 1 4 9 -7 18 -14 21 -14 7z"/>
<path d="M3204 342 c-16 -15 -25 -24 -18 -20 6 4 14 5 17 1 4 -3 7 -1 7 6 0 7
3 10 8 8 4 -3 13 1 19 9 24 25 -3 22 -33 -4z"/>
<path d="M3577 235 c3 -8 9 -12 14 -9 12 7 11 11 -5 17 -10 4 -13 1 -9 -8z"/>
<path d="M3815 139 c-4 -6 -5 -12 -2 -15 2 -3 7 2 10 11 7 17 1 20 -8 4z"/>
<path d="M3565 91 c-3 -5 -2 -12 3 -15 5 -3 9 1 9 9 0 17 -3 19 -12 6z"/>
<path d="M3730 35 c-11 -13 -10 -14 4 -9 9 3 16 10 16 15 0 13 -6 11 -20 -6z"/>
</g>
</svg>
